<?xml version="1.0" encoding="UTF-8"?>
<svg id="Capa_1-6" data-name="Capa 1" xmlns="http://www.w3.org/2000/svg" viewBox="0 0 792 612">
  <defs>
    <style>
      .cls-1 {
        fill-rule: evenodd;
      }
    </style>
  </defs>
  <g>
    <path class="cls-1" d="M396.06,393.07c13.32,0,25.24-11.98,33.21-30.84-3.42,1.39-6.93,2.54-10.45,3.45-1.14.3-2.28.57-3.4.81-5.02,14.53-11.84,23.47-19.36,23.47-13.66,0-25.02-29.46-27.42-68.37-.41-7.49,1.39-13.55,5.75-15.35-4.36-1.8-6.16-7.86-5.75-15.35.23-3.8.56-7.51.95-11.11-5.48,1.34-10.8,3.3-15.75,5.93-.8,6.58-1.22,13.45-1.22,20.53,0,47.95,19.45,86.82,43.45,86.82h0ZM434.9,345.16c-4.61,4.63-10.29,8.18-16.38,10.72,2.45-9.99,4.19-21.67,4.97-34.36.39-7.45-1.41-13.47-5.76-15.27,4.35-1.8,6.15-7.82,5.76-15.27-.79-12.94-2.58-24.83-5.11-34.94,3.19,0,6.38,0,9.58,0,1.16,0,2.34-.03,3.51-.11,5.06,14.2,8.04,31.57,8.04,50.33,0,13.99-1.66,27.21-4.6,38.92h0ZM428.64,248.82c-.8-1.82-1.65-3.58-2.52-5.26h-11.57c.63,1.67,1.23,3.43,1.81,5.27,4.1,0,8.19-.01,12.29-.01h0ZM421.85,236.37c-7.21-10.65-16.13-16.95-25.79-16.95-19.1,0-35.32,24.63-41.14,58.85,1.22-.6,2.46-1.17,3.7-1.7,3.85-1.65,7.84-3.01,11.91-4.07,4.32-29.43,14.13-49.98,25.53-49.98,5.68,0,10.96,5.1,15.36,13.85h10.42Z"/>
    <path class="cls-1" d="M444.12,250.99c-3.71,2.31-7.23,4.64-10.59,6.98,1.09,3.28,2.04,6.62,2.87,10,6.71-6.05,14.09-14.16,10.63-21.36-2.53,3.49-7.11,3.33-15.18,3.49,0,0-8.83,0-26.49.03-4.9,0-6.93-2.24-6.08-4.24l-25.58,19.7c13-8.72,18.68-10.85,29.17-10.85,16.72-.02,25.07-.03,25.07-.03,8.69,0,12.66-1.84,16.18-3.74h0ZM404.22,283.27c-2.6-.21-5.25-.32-7.93-.32-4.94,0-9.75.37-14.41,1.08-1.78,2.4-4.28,4.45-7.48,6.15,4.38-.72,8.92-1.1,13.58-1.1,3.63,0,7.19.23,10.65.67-29.22,36.19-22.53,68.59,2.09,69.9l11.01-18.54c-11.63,15.29-24.56-1.29-11.31-29.68,1.77-3.5,4.19-5,7.41-5.19-2.07-.15-3.06-2.91-.87-6.42,3.77-5.72,8.55-11.76,14.51-17.99-.45-4.43-1.04-8.87-1.79-13.27-5.84,4.89-10.98,9.81-15.46,14.69Z"/>
    <path class="cls-1" d="M378.37,367.41h11.48c10.25,0,18.58-.35,28.65-2.98,26.11-6.82,44.73-24.55,44.73-45.34,0-14.73-9.35-27.93-24.08-36.79.8,5.65,1.29,11.31,1.52,16.84,13.24,19.75,6.15,46.86-22.52,58.29-11.64,4.64-26.58,5.41-41.27,5.52.47,1.5.97,2.99,1.5,4.46h0ZM413.16,272.53c-2.04,1.86-4.02,3.76-5.96,5.71-5.72-1.26-12.05-1.95-18.98-1.95-27.34,0-50.37,13.43-57.3,31.72.55-3.37-.17-7.22-2.14-9.66l13.36-47.09c1.85-6.5,1.06-12.21-4.19-13.6h29.93c-.94,1.5-1.83,3.04-2.67,4.61h-15.51c-3.2,11.19-4.8,16.79-4.8,16.79l-10.5,37.01c11.6-15.08,34.25-25.33,60.29-25.33,6.4,0,12.6.62,18.48,1.78h0ZM379.45,242.27h54.6c10.48,0,16.17,2.13,29.17,10.85l-25.58-19.7c.84,2-1.18,4.24-6.08,4.24h-50.07c-.73,1.5-1.41,3.05-2.04,4.61h0ZM361.73,362.91c-24.8-.85-24.4-11.69-27.13-47.06l.22,51.55h28.97c-.72-1.47-1.4-2.97-2.05-4.5Z"/>
  </g>
  <g>
    <path class="cls-1" d="M342.72,411.39l-1.85,4.08,6.99,3.16c.22.1.4.14.52.11.12-.03.25-.13.39-.31l.26.12-.93,2.05-.26-.12c.04-.23.03-.39-.04-.5-.06-.11-.2-.22-.43-.32l-8.75-3.96.12-.26c.23.04.4.03.51-.03.11-.06.21-.2.31-.43l4.09-9.04c.1-.22.14-.4.11-.52-.03-.12-.13-.26-.31-.4l.12-.26,8.66,3.92c.22.1.4.14.52.11.12-.03.26-.13.4-.31l.26.12-.93,2.05-.26-.12c.04-.22.03-.39-.03-.5-.06-.11-.21-.22-.43-.32l-6.89-3.12-1.7,3.76,4.51,2.04c.22.1.4.14.52.11.12-.03.26-.13.39-.31l.26.12-.93,2.05-.26-.12c.05-.22.03-.39-.03-.5-.06-.11-.2-.22-.43-.32l-4.51-2.04h0ZM368.56,414.9l-1.83,1.84-.2-.19c.17-.23.26-.37.28-.43.05-.17-.11-.41-.47-.73-.98-.85-2.11-1.46-3.38-1.82-1.04-.3-2.01-.36-2.89-.19-.43.09-.79.25-1.09.49-.3.24-.5.53-.6.87-.08.28-.07.57.03.87.1.3.27.55.51.75.26.23.6.43.99.6.4.17,1.06.4,1.99.7,1.28.41,2.19.73,2.73.97.53.24.95.51,1.25.82.8.81,1.05,1.76.74,2.85-.3,1.04-.97,1.77-2.03,2.19-1.18.47-2.61.47-4.3-.01-.98-.28-1.8-.62-2.47-1.02-.67-.4-1.44-1.01-2.29-1.83-.25-.21-.39-.32-.44-.34-.08-.02-.25.04-.49.19l-.19-.21,1.87-1.76.2.2c-.17.2-.27.33-.29.41-.05.18.23.56.84,1.14.55.52,1.11.94,1.67,1.26.56.32,1.19.58,1.89.78,1.43.41,2.6.4,3.51-.02.61-.28,1-.71,1.16-1.28.22-.76-.05-1.4-.81-1.92-.24-.18-.51-.32-.79-.42-.28-.11-1.1-.38-2.44-.82-.96-.32-1.69-.6-2.21-.87-.52-.26-.96-.58-1.31-.94-.34-.34-.56-.75-.68-1.22-.12-.47-.11-.95.03-1.43.23-.82.74-1.43,1.51-1.85.57-.3,1.29-.46,2.16-.48.86-.02,1.77.1,2.72.37.77.22,1.47.5,2.09.84.62.34,1.29.82,2.02,1.43.17.13.27.2.32.22.1.03.27-.05.51-.22l.2.19h0ZM379.2,417.39l-1.73,9.68c-.04.24-.03.41.02.52.06.12.19.22.39.32l-.05.28-2.46-.44.05-.28c.23-.02.39-.07.48-.16.09-.08.16-.25.2-.49l1.73-9.68-3.99-.71c-.24-.04-.42-.04-.53.02-.11.05-.21.19-.31.4l-.28-.05.4-2.21.28.05c.01.23.06.39.15.48.09.09.25.16.49.2l9.34,1.67c.24.04.42.04.53-.02.12-.06.22-.19.31-.4l.28.05-.4,2.21-.28-.05c-.01-.23-.06-.39-.15-.48-.09-.09-.26-.16-.49-.2l-3.99-.71h0ZM394.32,421.23l-1.84-1.71.2-.2c.23.15.4.22.52.22.06,0,.15-.06.25-.17,1.24-1.4,2.8-2.12,4.66-2.16,1.25-.03,2.28.27,3.1.89.85.64,1.29,1.48,1.32,2.51.03,1.02-.35,1.88-1.13,2.57-.53.48-1.42,1.04-2.67,1.7-.95.5-1.6.86-1.96,1.09-.36.23-.71.51-1.06.86-.49.47-.83.99-1.02,1.56l7.47-.19c.25,0,.42-.05.52-.13.1-.08.17-.23.22-.45h.29s.06,2.24.06,2.24h-.29c-.06-.21-.14-.36-.24-.43-.1-.07-.28-.11-.52-.1l-8.24.21c-.25,0-.42.05-.52.13-.1.08-.17.23-.22.45h-.29c0-.62.07-1.17.23-1.65.16-.48.45-.98.84-1.51.44-.58.97-1.11,1.6-1.57.63-.46,1.51-.98,2.66-1.55.68-.35,1.18-.63,1.49-.84.32-.21.59-.45.83-.72.39-.45.58-.95.57-1.53-.02-.64-.26-1.16-.74-1.57-.63-.54-1.44-.79-2.44-.77-1.12.03-2.12.42-2.97,1.18-.5.44-.74.76-.74.95,0,.13.09.29.25.49l-.19.21h0ZM413.21,415.94c1.47-.26,2.82.03,4.06.88.65.44,1.2,1.02,1.66,1.74.49.77.83,1.63,1,2.59.21,1.19.1,2.37-.35,3.53-.4,1.05-1.04,1.89-1.91,2.53-.68.5-1.44.83-2.27.98-.98.17-1.94.08-2.88-.27-1.01-.37-1.86-1.02-2.55-1.95-.65-.86-1.07-1.83-1.26-2.91-.22-1.25-.11-2.45.33-3.61.4-1.05,1.03-1.89,1.91-2.53.66-.49,1.42-.81,2.26-.98h0ZM413.42,417.13c-1.23.22-2.18.85-2.85,1.9-.71,1.09-.93,2.37-.67,3.82.26,1.46.91,2.58,1.95,3.36.99.75,2.1,1.01,3.34.79,1.24-.22,2.19-.85,2.86-1.9.71-1.1.93-2.35.68-3.76-.27-1.51-.93-2.65-1.96-3.42-.99-.73-2.11-1-3.35-.79h0ZM426.79,417.05l-2.21-1.2.14-.24c.26.08.45.11.56.08.06-.02.13-.1.2-.23.86-1.66,2.18-2.75,3.98-3.26,1.2-.34,2.28-.31,3.23.09.98.41,1.62,1.11,1.9,2.11.28.98.13,1.91-.45,2.77-.4.6-1.12,1.37-2.16,2.31-.8.72-1.34,1.23-1.63,1.54-.29.31-.56.67-.81,1.09-.35.58-.55,1.17-.6,1.76l7.19-2.04c.24-.07.39-.15.47-.25.08-.1.11-.26.1-.49l.28-.08.61,2.16-.28.08c-.11-.2-.22-.32-.35-.36-.12-.04-.3-.03-.53.03l-7.93,2.25c-.24.07-.39.15-.47.25-.08.1-.11.26-.1.49l-.28.08c-.17-.6-.23-1.16-.19-1.66.04-.51.19-1.06.44-1.67.28-.68.67-1.31,1.16-1.92.5-.6,1.22-1.32,2.19-2.16.57-.51.99-.91,1.24-1.18.25-.28.46-.58.63-.9.27-.53.33-1.07.17-1.62-.17-.61-.54-1.06-1.11-1.33-.74-.36-1.59-.41-2.56-.14-1.08.31-1.95.94-2.58,1.88-.37.55-.53.92-.48,1.1.04.13.16.26.37.41l-.13.25h0ZM450.24,413.09l1.08-.49c.22-.1.37-.21.43-.32.06-.11.07-.28.03-.5l.26-.12.93,2.05-.26.12c-.14-.18-.27-.28-.4-.31-.12-.03-.3,0-.52.11l-1.08.49.62,1.37c.1.22.2.35.31.41.11.06.28.07.5.04l.12.26-2.21,1-.12-.26c.18-.15.28-.28.31-.4.03-.12,0-.29-.11-.51l-.62-1.37-6.05,2.74c-.22.1-.37.21-.43.32-.06.11-.07.28-.03.5l-.26.12-.59-1.31,2.92-9.94c.03-.11.03-.18.01-.23-.04-.08-.2-.1-.49-.05l-.12-.26,2.85-1.29.12.26c-.18.14-.28.27-.31.39-.03.12,0,.29.11.51l3.01,6.66h0ZM449.04,413.63l-2.88-6.37-2.54,8.82,5.42-2.45Z"/>
    <path class="cls-1" d="M396.2,182.89c.95.02,1.78.29,2.48.79.7.5,1.26,1.28,1.68,2.33.42,1.05.61,2.31.57,3.78-.06,2.18-.65,3.87-1.77,5.05-.91.97-2.05,1.43-3.42,1.4-.92-.02-1.73-.29-2.43-.8-.7-.51-1.26-1.26-1.67-2.25-.42-.99-.6-2.24-.56-3.76.04-1.52.29-2.76.74-3.71.45-.95,1.06-1.67,1.81-2.15.76-.48,1.61-.71,2.57-.69h0ZM396.14,183.8c-.65-.02-1.22.2-1.72.66-.44.4-.8,1.03-1.06,1.9-.31.99-.48,2.09-.51,3.3-.02.94.04,1.79.2,2.56.16.76.38,1.36.66,1.79.28.43.61.75.97.97.37.21.76.32,1.16.33.62.02,1.2-.21,1.74-.67.44-.38.79-.95,1.06-1.72.32-.93.5-2.03.53-3.29.03-1.31-.09-2.42-.37-3.34-.28-.92-.64-1.56-1.08-1.92-.44-.36-.96-.55-1.58-.57Z"/>
    <path class="cls-1" d="M327.19,206.52l2.22,3.46,4.37-2.8c.21-.13.33-.26.38-.38.05-.12.03-.28-.05-.5l.24-.16,1.21,1.89-.24.16c-.16-.16-.31-.24-.43-.25-.13,0-.29.05-.5.19l-4.37,2.8,2.48,3.86c.13.21.26.33.37.38.12.04.28.03.51-.04l.16.24-2.11,1.35-.16-.24c.15-.17.24-.32.25-.44,0-.12-.05-.29-.18-.5l-5.35-8.35c-.13-.21-.26-.33-.38-.38-.12-.05-.28-.03-.5.04l-.16-.24,8.2-5.26c.21-.13.33-.26.38-.38.05-.12.03-.29-.04-.5l.24-.16,1.21,1.89-.24.16c-.17-.16-.31-.25-.44-.25-.13,0-.29.06-.5.19l-6.56,4.21Z"/>
    <path class="cls-1" d="M346.32,206.65l-4.52-8.83c-.11-.22-.23-.36-.34-.41-.11-.06-.28-.06-.5,0l-.13-.26,2.23-1.14.13.26c-.17.15-.27.29-.29.41-.02.12.02.3.13.51l4.52,8.83c.11.22.22.36.33.41.11.05.28.06.51,0l.13.26-2.23,1.14-.13-.26c.18-.16.27-.29.29-.42.02-.12-.03-.29-.14-.51Z"/>
    <path class="cls-1" d="M359.5,200.55l.84-9.65c.04-.4.03-.68-.03-.85-.07-.21-.28-.3-.63-.27l-.09-.27,2.58-.87.09.27c-.24.17-.38.33-.43.49-.05.16-.11.59-.17,1.29l-.88,9.5c-.03.37-.02.63.03.78.08.23.29.33.63.29l.09.27-3.17,1.07-.09-.27c.29-.17.4-.38.32-.63-.05-.13-.2-.34-.45-.62l-6.61-7.24c-.36-.39-.61-.63-.75-.72-.14-.08-.35-.13-.62-.11l-.09-.27,2.71-.92.09.27c-.3.19-.42.39-.35.6.06.19.22.42.48.69l6.51,7.16Z"/>
    <path class="cls-1" d="M372.59,192.8l.79,4.41,7.55-1.35c.24-.04.41-.11.49-.2.09-.09.14-.25.15-.48l.28-.05.4,2.22-.28.05c-.09-.21-.2-.34-.31-.39-.11-.06-.29-.06-.53-.02l-9.46,1.69-.05-.28c.21-.1.34-.2.4-.31.05-.11.06-.29.02-.53l-1.74-9.76c-.04-.24-.11-.41-.2-.49-.09-.08-.25-.14-.48-.16l-.05-.28,9.36-1.67c.24-.04.41-.11.49-.2.08-.09.14-.25.15-.48l.28-.05.4,2.21-.28.05c-.09-.21-.19-.34-.31-.4-.12-.06-.29-.06-.53-.02l-7.45,1.33.72,4.06,4.88-.87c.24-.04.41-.11.49-.2.09-.09.14-.25.15-.48l.28-.05.4,2.22-.28.05c-.09-.21-.19-.34-.31-.4-.11-.06-.29-.06-.53-.02l-4.88.87Z"/>
    <path class="cls-1" d="M421.59,187.5l-1.64,2.01-.22-.17c.14-.24.22-.4.23-.46.03-.17-.15-.4-.54-.68-1.06-.75-2.24-1.24-3.54-1.47-1.07-.19-2.03-.16-2.89.1-.42.13-.76.33-1.04.6-.28.27-.45.58-.51.93-.05.29-.01.58.11.86.13.29.32.52.58.7.28.2.64.37,1.05.5.41.13,1.1.29,2.05.49,1.32.28,2.25.51,2.81.69.56.18,1,.42,1.33.69.88.72,1.22,1.64,1.02,2.77-.19,1.07-.79,1.86-1.8,2.38-1.12.59-2.55.72-4.28.42-1-.18-1.85-.43-2.56-.77-.71-.33-1.53-.86-2.46-1.59-.27-.18-.42-.28-.48-.29-.09-.02-.24.07-.46.24l-.21-.19,1.68-1.94.22.18c-.15.21-.23.36-.25.44-.03.18.29.54.95,1.05.6.46,1.2.83,1.78,1.09.59.26,1.24.46,1.96.59,1.46.26,2.62.14,3.49-.37.58-.34.92-.8,1.03-1.39.14-.78-.19-1.39-1-1.83-.26-.15-.53-.26-.83-.34-.29-.08-1.13-.27-2.51-.57-.98-.22-1.75-.43-2.29-.64-.54-.21-1.01-.48-1.4-.8-.37-.3-.64-.69-.8-1.15-.17-.46-.2-.93-.11-1.42.15-.84.59-1.5,1.32-1.99.54-.35,1.24-.59,2.1-.69.86-.11,1.77-.07,2.74.1.79.14,1.51.35,2.16.63.65.28,1.36.69,2.15,1.22.18.11.29.18.34.18.1.02.26-.07.48-.27l.22.16Z"/>
    <path class="cls-1" d="M425.19,194.21l-1.22,4.31,7.38,2.1c.24.07.41.08.53.03.12-.04.23-.16.34-.36l.28.08-.61,2.16-.28-.08c0-.23-.03-.39-.11-.49-.08-.1-.23-.19-.47-.25l-9.24-2.62.08-.28c.24,0,.4-.03.5-.1.1-.08.18-.23.25-.47l2.71-9.54c.07-.24.08-.41.03-.53-.04-.12-.16-.23-.36-.35l.08-.28,9.14,2.6c.24.07.41.08.53.04.12-.05.23-.17.35-.37l.28.08-.61,2.16-.28-.08c0-.23-.02-.39-.1-.49-.08-.1-.24-.19-.47-.25l-7.28-2.07-1.13,3.97,4.76,1.35c.24.07.41.08.53.03.12-.04.23-.16.34-.36l.28.08-.61,2.16-.28-.08c.01-.23-.02-.39-.1-.49-.08-.1-.23-.19-.47-.25l-4.76-1.35Z"/>
    <path class="cls-1" d="M439.48,203.37l7.19-6.48c.3-.26.49-.48.56-.64.09-.2,0-.41-.28-.63l.12-.26,2.48,1.12-.12.26c-.28-.04-.5-.02-.65.06-.15.08-.48.36-1.01.83l-7.12,6.35c-.28.25-.44.45-.51.59-.1.22-.02.44.26.64l-.12.26-3.05-1.38.12-.26c.33.07.55,0,.66-.24.06-.13.09-.38.09-.76l.11-9.8c0-.53-.02-.88-.06-1.04-.05-.16-.17-.33-.38-.51l.12-.26,2.6,1.18-.12.26c-.35-.07-.57,0-.66.2-.08.18-.12.46-.13.83l-.13,9.68Z"/>
    <path class="cls-1" d="M450.55,203.94l-2.23,3.89,6.65,3.82c.21.12.38.18.51.16s.26-.1.42-.27l.25.14-1.12,1.95-.25-.14c.06-.22.06-.39.01-.5-.05-.12-.18-.24-.4-.36l-8.33-4.79.14-.25c.23.06.39.07.51.02.11-.05.23-.18.35-.4l4.94-8.6c.12-.21.18-.38.16-.51-.02-.12-.1-.27-.27-.43l.14-.25,8.24,4.74c.21.12.38.18.51.16.12-.02.27-.11.43-.27l.25.14-1.12,1.95-.25-.14c.06-.22.07-.38.02-.5-.05-.12-.18-.24-.4-.36l-6.56-3.77-2.05,3.57,4.29,2.47c.21.12.38.18.51.16.13-.01.27-.1.42-.27l.25.14-1.12,1.95-.25-.14c.07-.22.07-.38.02-.5-.05-.12-.18-.24-.4-.36l-4.29-2.47Z"/>
    <path class="cls-1" d="M465.2,207.19l-5.83,7.42c-.15.19-.22.35-.23.47,0,.13.06.28.2.47l-.18.23-1.87-1.47.18-.23c.22.09.38.12.5.09.12-.03.25-.15.41-.34l6.13-7.8c.15-.19.23-.35.23-.48,0-.13-.06-.28-.2-.46l.18-.23,2.71,2.13-.18.23c-.27-.1-.46-.08-.57.06-.07.09-.1.35-.08.77l.45,11.1,5.41-6.88c.15-.19.23-.35.23-.48,0-.13-.06-.28-.2-.46l.18-.23,1.87,1.47-.18.23c-.21-.09-.37-.13-.49-.09-.12.03-.26.15-.41.34l-6.13,7.8c-.15.19-.23.35-.23.48,0,.12.07.28.2.46l-.18.23-2.17-1.71.18-.23c.25.11.44.1.54-.03.08-.1.11-.34.1-.73l-.55-12.13Z"/>
  </g>
</svg>